<svg xmlns="http://www.w3.org/2000/svg" width="500" height="324">
  <defs>
    <filter id="a" width="102.4%" height="103.2%" x="-1.2%" y="-1.6%" filterUnits="objectBoundingBox">
      <feGaussianBlur in="SourceGraphic" stdDeviation="2"/>
    </filter>
    <filter id="b" width="102.5%" height="103.8%" x="-1.2%" y="-1.9%" filterUnits="objectBoundingBox">
      <feGaussianBlur in="SourceGraphic" stdDeviation="2"/>
    </filter>
    <filter id="c" width="102.5%" height="103.9%" x="-1.2%" y="-1.9%" filterUnits="objectBoundingBox">
      <feGaussianBlur in="SourceGraphic" stdDeviation="2"/>
    </filter>
  </defs>
  <g fill="#fff" fill-rule="evenodd">
    <path d="M72.646 80.6816c-1.6444.202-3.1958-1.4119-3.465-3.6046-.2693-2.1926.8456-4.1338 2.4901-4.3357 1.6445-.202 3.196 1.4119 3.4651 3.6045.2693 2.1927-.8456 4.1339-2.4901 4.3358zm-22.8913 88.449c-1.9186.2356-3.6922-1.3509-3.9614-3.5436-.2692-2.1926 1.0678-4.1611 2.9864-4.3967 1.9186-.2356 3.6922 1.351 3.9614 3.5436.2692 2.1927-1.0678 4.1612-2.9864 4.3968zM231.52 201.2183c-1.6445.202-3.1959-1.4119-3.465-3.6046-.2693-2.1926.8456-4.1338 2.49-4.3358 1.6446-.2019 3.196 1.412 3.4652 3.6046.2692 2.1927-.8457 4.1339-2.4902 4.3358zm-118.8806 82.0999c-1.6445.202-3.196-1.412-3.4652-3.6046-.2692-2.1927.8457-4.1339 2.4902-4.3358 1.6445-.2019 3.1959 1.412 3.4651 3.6046.2692 2.1927-.8456 4.1339-2.4901 4.3358zm237.446-76.5077c-1.6446.202-3.196-1.4119-3.4652-3.6045-.2692-2.1927.8456-4.134 2.4902-4.3358 1.6445-.202 3.1958 1.4119 3.465 3.6045.2693 2.1927-.8456 4.134-2.49 4.3358zm-43.2085-93.4306c-1.9186.2356-3.6922-1.351-3.9614-3.5437-.2692-2.1926 1.0679-4.1611 2.9865-4.3967 1.9185-.2356 3.6921 1.351 3.9613 3.5437.2693 2.1926-1.0678 4.1611-2.9864 4.3967zm-128.046-37.676c-1.6445.202-3.1959-1.4119-3.465-3.6045-.2693-2.1927.8456-4.134 2.49-4.3358 1.6446-.202 3.196 1.4119 3.4652 3.6045.2692 2.1927-.8457 4.134-2.4902 4.3358zm195.5668-40.1327c-1.6445.202-3.1959-1.4119-3.4651-3.6046-.2692-2.1926.8456-4.1338 2.4902-4.3358 1.6445-.2019 3.1958 1.412 3.465 3.6046.2693 2.1927-.8456 4.1339-2.49 4.3358zm48.0405 95.8599c-1.6445.2019-3.196-1.412-3.4651-3.6046-.2693-2.1927.8456-4.1339 2.4901-4.3358 1.6445-.202 3.196 1.4119 3.4651 3.6046.2693 2.1926-.8456 4.1338-2.4901 4.3358zm-17.955 99.933c-1.6446.202-3.196-1.4119-3.4652-3.6046-.2692-2.1926.8457-4.1338 2.4902-4.3357 1.6445-.202 3.1958 1.4119 3.465 3.6045.2693 2.1927-.8456 4.1339-2.49 4.3358zm-52.4229 36.662c-1.9186.2356-3.6921-1.351-3.9614-3.5436-.2692-2.1927 1.0679-4.1612 2.9865-4.3967 1.9186-.2356 3.6921 1.351 3.9614 3.5436.2692 2.1927-1.0679 4.1612-2.9865 4.3967zm-54.022-83.0353c-1.6446.202-3.196-1.4119-3.4652-3.6045-.2692-2.1927.8456-4.134 2.4902-4.3358 1.6445-.202 3.1958 1.4119 3.465 3.6045.2693 2.1927-.8456 4.134-2.49 4.3358zm-144.4947 54.0121c-1.6445.202-3.196-1.412-3.4651-3.6046-.2693-2.1927.8456-4.1339 2.4901-4.3358 1.6445-.2019 3.196 1.412 3.4651 3.6046.2693 2.1927-.8456 4.1339-2.4901 4.3358zm-128.056 23.7834c-1.6446.2019-3.196-1.412-3.4652-3.6046-.2692-2.1927.8457-4.1339 2.4902-4.3358 1.6445-.202 3.1959 1.412 3.4651 3.6046.2692 2.1927-.8457 4.1339-2.4902 4.3358zM-14.8539 49.1098c-1.6445.202-3.1958-1.4119-3.465-3.6045-.2693-2.1927.8456-4.134 2.49-4.3358 1.6446-.202 3.196 1.4119 3.4652 3.6045.2692 2.1927-.8457 4.134-2.4902 4.3358zm447.2627 3.5187c-1.9186.2355-3.6922-1.351-3.9614-3.5437-.2692-2.1927 1.0678-4.1611 2.9864-4.3967 1.9186-.2356 3.6922 1.351 3.9614 3.5436.2692 2.1927-1.0678 4.1612-2.9864 4.3968zM251.636 20.419c-1.6445.202-3.1959-1.4119-3.4651-3.6045-.2693-2.1927.8456-4.134 2.4901-4.3358 1.6445-.202 3.196 1.4119 3.4651 3.6045.2693 2.1927-.8456 4.134-2.4901 4.3358zm-43.0163 273.2794c-1.6445.2019-3.1959-1.412-3.465-3.6046-.2693-2.1927.8456-4.1339 2.49-4.3358 1.6446-.2019 3.196 1.412 3.4652 3.6046.2692 2.1927-.8457 4.1339-2.4902 4.3358zm265.9848-24.5988c-1.6445.202-3.1959-1.4119-3.4651-3.6045-.2692-2.1927.8456-4.134 2.4901-4.3358 1.6446-.202 3.196 1.4119 3.4652 3.6045.2692 2.1927-.8457 4.134-2.4902 4.3358zm-352.8551-124.929c-1.6445.202-3.196-1.4118-3.4652-3.6045-.2692-2.1927.8457-4.1339 2.4902-4.3358 1.6445-.202 3.1959 1.4119 3.4651 3.6046.2692 2.1926-.8456 4.1338-2.4901 4.3358zm111.9755-43.9741c-1.9186.2356-3.6922-1.351-3.9614-3.5436-.2692-2.1927 1.0679-4.1612 2.9865-4.3968 1.9185-.2355 3.6921 1.351 3.9613 3.5437.2693 2.1926-1.0678 4.1611-2.9864 4.3967zm151.6573 74.0697c-1.6445.202-3.196-1.4119-3.4651-3.6045-.2693-2.1927.8456-4.134 2.4901-4.3358 1.6445-.202 3.1959 1.4119 3.4651 3.6045.2693 2.1927-.8456 4.134-2.4901 4.3358zM107.247 26.0577c-1.6445.2019-3.1959-1.412-3.4651-3.6046-.2692-2.1927.8457-4.1339 2.4902-4.3358 1.6445-.202 3.1958 1.4119 3.465 3.6046.2693 2.1926-.8456 4.1338-2.49 4.3358zM438.5313-24.694c-1.6445.2019-3.196-1.412-3.4651-3.6046-.2693-2.1927.8456-4.1339 2.4901-4.3358 1.6445-.202 3.196 1.412 3.4651 3.6046.2693 2.1927-.8456 4.1339-2.4901 4.3358zm7.8398 215.652c-1.9186.2356-3.6922-1.351-3.9614-3.5437-.2692-2.1926 1.0678-4.1611 2.9864-4.3967 1.9186-.2356 3.6922 1.351 3.9614 3.5437.2692 2.1926-1.0678 4.1611-2.9864 4.3967z" filter="url(#a)" opacity=".6"/>
    <path d="M20.5688 69.482c-1.3506.2871-2.7246-.794-3.0691-2.4146-.3445-1.6207.471-3.1672 1.8216-3.4542 1.3506-.287 2.7246.794 3.0691 2.4146.3445 1.6207-.471 3.1672-1.8216 3.4543zM8.4433 137.4893c-1.3505.287-2.7246-.794-3.0691-2.4147-.3445-1.6206.471-3.1671 1.8216-3.4542 1.3506-.287 2.7246.794 3.0691 2.4147.3445 1.6206-.471 3.1671-1.8216 3.4542zm139.5962 12.2439c-1.3506.287-2.7247-.794-3.0692-2.4147-.3444-1.6206.4711-3.1671 1.8217-3.4542 1.3505-.287 2.7246.794 3.069 2.4147.3446 1.6206-.471 3.1671-1.8215 3.4542zm-84.2769 70.053c-1.3505.287-2.7246-.794-3.069-2.4147-.3446-1.6207.471-3.1672 1.8216-3.4542 1.3505-.2871 2.7246.794 3.069 2.4146.3445 1.6207-.471 3.1672-1.8216 3.4543zm174.4507-73.885c-1.3506.2871-2.7247-.794-3.0691-2.4146-.3445-1.6206.471-3.1672 1.8216-3.4542 1.3505-.287 2.7246.794 3.0691 2.4146.3445 1.6207-.4711 3.1672-1.8216 3.4543zm-39.8392-67.185c-1.3505.287-2.7246-.794-3.0691-2.4147-.3445-1.6207.4711-3.1672 1.8216-3.4542 1.3506-.2871 2.7247.794 3.0691 2.4146.3445 1.6207-.471 3.1672-1.8216 3.4542zm-98.306-19.998c-1.3506.287-2.7247-.7941-3.0691-2.4148-.3445-1.6206.471-3.1671 1.8216-3.4542 1.3505-.287 2.7246.794 3.0691 2.4147.3445 1.6206-.4711 3.1671-1.8216 3.4542zm144.9974-44.1107c-1.3505.287-2.7246-.794-3.0691-2.4146-.3445-1.6207.471-3.1672 1.8216-3.4543 1.3506-.287 2.7247.794 3.0691 2.4147.3445 1.6206-.471 3.1672-1.8216 3.4542zm42.4192 69.7038c-1.3506.287-2.7246-.794-3.0691-2.4147-.3445-1.6206.471-3.1671 1.8216-3.4542 1.3506-.287 2.7246.794 3.0691 2.4147.3445 1.6206-.471 3.1671-1.8216 3.4542zm-7.112 77.1649c-1.3505.287-2.7246-.794-3.069-2.4147-.3445-1.6206.471-3.1672 1.8216-3.4542 1.3505-.287 2.7246.794 3.069 2.4146.3446 1.6207-.471 3.1672-1.8215 3.4543zm-37.4862 30.4594c-1.3506.287-2.7247-.794-3.0691-2.4146-.3445-1.6207.471-3.1672 1.8216-3.4543 1.3505-.287 2.7246.794 3.0691 2.4147.3445 1.6206-.4711 3.1671-1.8216 3.4542zm-45.2308-58.8827c-1.3506.287-2.7247-.794-3.0691-2.4147-.3445-1.6206.471-3.1671 1.8216-3.4542 1.3505-.287 2.7246.794 3.069 2.4147.3446 1.6206-.471 3.1671-1.8215 3.4542zm-105.8953 50.112c-1.3505.287-2.7246-.7941-3.069-2.4147-.3445-1.6207.471-3.1672 1.8216-3.4543 1.3505-.287 2.7246.794 3.069 2.4147.3446 1.6206-.471 3.1672-1.8216 3.4542zM289.12 24.6677c-1.3506.2871-2.7247-.794-3.0691-2.4146-.3445-1.6207.471-3.1672 1.8216-3.4542 1.3505-.2871 2.7246.794 3.0691 2.4146.3445 1.6207-.471 3.1672-1.8216 3.4542zM151.48 12.0081c-1.3505.2871-2.7246-.794-3.0691-2.4146-.3445-1.6207.4711-3.1672 1.8216-3.4542 1.3506-.2871 2.7247.794 3.0691 2.4146.3445 1.6207-.471 3.1672-1.8216 3.4542zm-14.9423 208.6666c-1.3505.287-2.7246-.794-3.0691-2.4147-.3445-1.6206.471-3.1671 1.8216-3.4542 1.3506-.287 2.7247.794 3.0691 2.4147.3445 1.6206-.471 3.1671-1.8216 3.4542zm199.0412-35.1511c-1.3505.287-2.7246-.794-3.0691-2.4147-.3445-1.6207.471-3.1672 1.8216-3.4542 1.3506-.287 2.7246.794 3.0691 2.4146.3445 1.6207-.471 3.1672-1.8216 3.4543zM61.7028 113.9005c-1.3506.287-2.7247-.794-3.0691-2.4147-.3445-1.6206.471-3.1671 1.8216-3.4542 1.3505-.287 2.7246.794 3.0691 2.4146.3445 1.6207-.471 3.1672-1.8216 3.4543zm81.295-40.7937c-1.3506.2871-2.7246-.794-3.0691-2.4146-.3445-1.6207.471-3.1672 1.8216-3.4542 1.3506-.2871 2.7246.794 3.0691 2.4146.3445 1.6207-.471 3.1672-1.8216 3.4542zm119.2156 46.2238c-1.3505.287-2.7246-.794-3.0691-2.4146-.3445-1.6207.471-3.1672 1.8216-3.4543 1.3506-.287 2.7247.794 3.0691 2.4147.3445 1.6207-.471 3.1672-1.8216 3.4542zM42.9907 25.8672c-1.3505.287-2.7246-.794-3.069-2.4147-.3446-1.6206.471-3.1671 1.8215-3.4542 1.3506-.287 2.7247.794 3.0691 2.4147.3445 1.6206-.471 3.1671-1.8216 3.4542zM9.2083 266.1415c-1.3505.287-2.7246-.794-3.069-2.4147-.3446-1.6206.471-3.1671 1.8216-3.4542 1.3505-.287 2.7246.794 3.069 2.4147.3445 1.6206-.471 3.1671-1.8216 3.4542zm299.786-138.3523c-1.3505.287-2.7246-.794-3.0691-2.4147-.3445-1.6206.471-3.1671 1.8216-3.4542 1.3506-.287 2.7247.794 3.0691 2.4146.3445 1.6207-.471 3.1672-1.8216 3.4543zm-59.1142 56.6412c-1.3506.287-2.7246-.794-3.0691-2.4147-.3445-1.6206.471-3.1671 1.8216-3.4542 1.3505-.287 2.7246.794 3.0691 2.4147.3445 1.6206-.471 3.1671-1.8216 3.4542zm-12.1255 68.0071c-1.3506.287-2.7246-.794-3.0691-2.4146-.3445-1.6207.471-3.1672 1.8216-3.4543 1.3506-.287 2.7246.794 3.0691 2.4147.3445 1.6207-.471 3.1672-1.8216 3.4542zm139.5961 12.244c-1.3505.287-2.7246-.7941-3.069-2.4148-.3445-1.6206.471-3.1671 1.8216-3.4542 1.3505-.287 2.7246.794 3.069 2.4147.3446 1.6206-.471 3.1671-1.8216 3.4542zm90.1739-3.832c-1.3506.287-2.7247-.794-3.0691-2.4147-.3445-1.6206.471-3.1671 1.8216-3.4542 1.3505-.287 2.7246.794 3.069 2.4147.3446 1.6206-.471 3.1671-1.8215 3.4542zm-39.8392-67.1851c-1.3505.287-2.7246-.794-3.0691-2.4147-.3445-1.6207.471-3.1672 1.8216-3.4542 1.3506-.2871 2.7247.794 3.0691 2.4146.3445 1.6207-.471 3.1672-1.8216 3.4543zm-98.306-19.998c-1.3506.287-2.7247-.794-3.0691-2.4147-.3445-1.6207.471-3.1672 1.8216-3.4543 1.3505-.287 2.7246.794 3.069 2.4147.3446 1.6207-.471 3.1672-1.8215 3.4542zm144.9974-44.1107c-1.3505.2871-2.7246-.794-3.0691-2.4146-.3445-1.6207.471-3.1672 1.8216-3.4542 1.3506-.2871 2.7246.794 3.0691 2.4146.3445 1.6207-.471 3.1672-1.8216 3.4542zm-2.179 177.3281c-1.3506.2871-2.7247-.794-3.0691-2.4146-.3445-1.6207.471-3.1672 1.8216-3.4543 1.3505-.287 2.7246.794 3.069 2.4147.3446 1.6207-.471 3.1672-1.8215 3.4542zm-45.2309-58.8827c-1.3505.287-2.7246-.794-3.069-2.4146-.3445-1.6207.471-3.1672 1.8216-3.4543 1.3505-.287 2.7246.794 3.069 2.4147.3446 1.6206-.471 3.1671-1.8216 3.4542zm-105.8952 50.112c-1.3505.287-2.7246-.794-3.069-2.4147-.3445-1.6207.471-3.1672 1.8216-3.4543 1.3505-.287 2.7246.794 3.069 2.4147.3446 1.6207-.471 3.1672-1.8216 3.4542zM181.6036 166.228c-1.3505.287-2.7246-.794-3.0691-2.4147-.3445-1.6206.471-3.1671 1.8216-3.4542 1.3506-.287 2.7247.794 3.0691 2.4147.3445 1.6206-.471 3.1671-1.8216 3.4542zm199.1877-39.2716c-1.3505.287-2.7246-.794-3.0691-2.4147-.3445-1.6207.471-3.1672 1.8216-3.4542 1.3506-.287 2.7247.794 3.0691 2.4146.3445 1.6207-.471 3.1672-1.8216 3.4543zm-89.7772 101.8923c-1.3506.287-2.7247-.794-3.0691-2.4147-.3445-1.6206.471-3.1671 1.8216-3.4542 1.3505-.287 2.7246.794 3.069 2.4147.3446 1.6206-.471 3.1671-1.8215 3.4542zm81.295-40.7936c-1.3506.287-2.7246-.794-3.0691-2.4147-.3445-1.6206.471-3.1672 1.8216-3.4542 1.3505-.287 2.7246.794 3.0691 2.4146.3445 1.6207-.471 3.1672-1.8216 3.4543zm119.2156 46.2237c-1.3505.2871-2.7246-.794-3.0691-2.4146-.3445-1.6207.471-3.1672 1.8216-3.4542 1.3506-.2871 2.7246.794 3.0691 2.4146.3445 1.6207-.471 3.1672-1.8216 3.4542zM272.302 140.8155c-1.3505.287-2.7246-.794-3.0691-2.4147-.3445-1.6206.4711-3.1671 1.8216-3.4542 1.3506-.287 2.7247.794 3.0691 2.4147.3445 1.6206-.471 3.1671-1.8216 3.4542z" filter="url(#b)" opacity=".6"/>
    <path d="M254.6998 20.9925c-1.1129.2366-2.245-.6542-2.529-1.9896-.2838-1.3354.3882-2.6097 1.501-2.8462 1.1129-.2366 2.2451.6542 2.529 1.9896.2838 1.3354-.3882 2.6097-1.501 2.8462zm-9.9912 56.0366c-1.1128.2366-2.245-.6542-2.5289-1.9896-.2838-1.3354.3882-2.6097 1.501-2.8462 1.1128-.2366 2.245.6542 2.5289 1.9896.2838 1.3354-.3882 2.6097-1.501 2.8462zM359.7332 87.118c-1.1129.2365-2.245-.6543-2.529-1.9897-.2838-1.3354.3883-2.6097 1.501-2.8462 1.1129-.2365 2.2451.6543 2.529 1.9896.2838 1.3354-.3882 2.6097-1.501 2.8463zm-69.4425 57.7223c-1.1129.2365-2.245-.6543-2.529-1.9897-.2838-1.3354.3883-2.6097 1.501-2.8462 1.1129-.2365 2.2451.6543 2.529 1.9896.2838 1.3354-.3882 2.6097-1.501 2.8463zm143.744-60.8798c-1.1129.2366-2.245-.6542-2.529-1.9896-.2838-1.3354.3883-2.6097 1.501-2.8462 1.1129-.2366 2.2451.6542 2.529 1.9896.2838 1.3354-.3882 2.6097-1.501 2.8462zM401.208 28.6011c-1.1129.2366-2.245-.6542-2.529-1.9896-.2838-1.3354.3883-2.6097 1.501-2.8462 1.1129-.2365 2.2451.6543 2.529 1.9896.2838 1.3354-.3882 2.6097-1.501 2.8462zm-81.0024-16.478c-1.1128.2366-2.245-.6542-2.5288-1.9896-.2839-1.3354.3881-2.6097 1.501-2.8462 1.1128-.2365 2.245.6543 2.5288 1.9896.2839 1.3354-.3881 2.6097-1.501 2.8463zm154.4278 21.0883c-1.1128.2366-2.245-.6542-2.529-1.9896-.2837-1.3354.3883-2.6097 1.501-2.8462 1.113-.2366 2.2451.6542 2.529 1.9896.2838 1.3354-.3882 2.6097-1.501 2.8462zm-5.8601 63.5824c-1.1128.2366-2.245-.6542-2.5289-1.9896-.2838-1.3354.3882-2.6097 1.501-2.8462 1.1128-.2365 2.245.6542 2.5289 1.9896.2838 1.3354-.3882 2.6097-1.501 2.8462zm-30.888 25.098c-1.1128.2366-2.245-.6542-2.5289-1.9896-.2838-1.3354.3882-2.6097 1.501-2.8462 1.1128-.2365 2.245.6542 2.5289 1.9896.2838 1.3354-.3882 2.6097-1.501 2.8462zM400.616 73.3736c-1.1128.2365-2.245-.6542-2.529-1.9896-.2838-1.3354.3883-2.6097 1.501-2.8462 1.1129-.2366 2.2451.6542 2.529 1.9896.2838 1.3354-.3882 2.6097-1.501 2.8462zm-87.2557 41.2913c-1.1128.2365-2.245-.6543-2.5289-1.9897-.2838-1.3353.3882-2.6096 1.501-2.8462 1.1129-.2365 2.245.6543 2.529 1.9897.2838 1.3353-.3882 2.6096-1.501 2.8462zm-77.9576 21.6247c-1.1128.2366-2.245-.6542-2.529-1.9896-.2838-1.3354.3883-2.6097 1.501-2.8462 1.1129-.2366 2.2451.6542 2.529 1.9896.2838 1.3354-.3882 2.6097-1.501 2.8462zM198.4412 5.9942c-1.1128.2365-2.245-.6543-2.5288-1.9896-.2839-1.3354.3881-2.6097 1.501-2.8463 1.1128-.2365 2.245.6543 2.5288 1.9897.2839 1.3354-.3881 2.6097-1.501 2.8462zM350.256 145.5724c-1.1128.2365-2.245-.6543-2.5288-1.9897-.2839-1.3353.3881-2.6096 1.501-2.8462 1.1128-.2365 2.245.6543 2.5288 1.9897.2839 1.3353-.3881 2.6096-1.501 2.8462zm-61.6625-87.98c-1.1128.2366-2.245-.6542-2.529-1.9896-.2838-1.3354.3883-2.6097 1.501-2.8462 1.1129-.2365 2.2451.6543 2.529 1.9896.2838 1.3354-.3882 2.6097-1.501 2.8463zm66.9855-33.6131c-1.1128.2365-2.245-.6543-2.5289-1.9897-.2838-1.3353.3882-2.6096 1.501-2.8462 1.1129-.2365 2.245.6543 2.529 1.9897.2838 1.3354-.3883 2.6096-1.501 2.8462zm98.2314 38.0875c-1.1128.2365-2.245-.6543-2.5289-1.9896-.2838-1.3354.3882-2.6097 1.501-2.8462 1.1128-.2366 2.245.6542 2.529 1.9896.2838 1.3354-.3883 2.6097-1.501 2.8462zM245.339 183.0362c-1.1129.2365-2.245-.6543-2.529-1.9897-.2838-1.3353.3882-2.6096 1.501-2.8462 1.1129-.2365 2.2451.6543 2.529 1.9897.2838 1.3353-.3882 2.6096-1.501 2.8462zM492.3569 69.0365c-1.1128.2365-2.245-.6543-2.5289-1.9897-.2838-1.3353.3882-2.6096 1.501-2.8462 1.1128-.2365 2.245.6543 2.5289 1.9897.2838 1.3353-.3882 2.6096-1.501 2.8462zM35.2807 231.3398c-1.1292.1386-2.1795-.8475-2.3459-2.2025-.1663-1.355.6142-2.566 1.7434-2.7046 1.1292-.1386 2.1794.8475 2.3458 2.2025.1664 1.355-.6141 2.566-1.7433 2.7046zm-14.837 54.9525c-1.1293.1387-2.1796-.8474-2.346-2.2024-.1663-1.355.6142-2.566 1.7434-2.7046 1.1292-.1387 2.1795.8474 2.3459 2.2025.1663 1.355-.6142 2.5659-1.7434 2.7045zm113.7075 20.0754c-1.1292.1387-2.1795-.8474-2.3459-2.2025-.1663-1.355.6142-2.5659 1.7434-2.7045 1.1292-.1387 2.1795.8474 2.3458 2.2025.1664 1.355-.6141 2.5659-1.7433 2.7045zm74.294 3.3304c-1.1292.1386-2.1795-.8474-2.3459-2.2025-.1664-1.355.6141-2.5659 1.7433-2.7045 1.1292-.1387 2.1795.8474 2.3459 2.2024.1664 1.355-.6141 2.566-1.7433 2.7046zm-27.877-58.0096c-1.1292.1386-2.1794-.8475-2.3458-2.2025-.1664-1.355.6141-2.566 1.7433-2.7046 1.1292-.1386 2.1795.8475 2.3459 2.2025.1664 1.355-.6142 2.566-1.7434 2.7046zm-79.2579-23.4752c-1.1292.1387-2.1795-.8474-2.3458-2.2024-.1664-1.355.6141-2.566 1.7433-2.7046 1.1292-.1386 2.1795.8474 2.3459 2.2025.1663 1.355-.6142 2.5659-1.7434 2.7045zm122.1883-25.795c-1.1292.1387-2.1795-.8474-2.3459-2.2025-.1663-1.355.6142-2.5659 1.7434-2.7045 1.1292-.1387 2.1795.8474 2.3458 2.2025.1664 1.355-.6141 2.5659-1.7433 2.7045zm29.8138 60.2623c-1.1292.1387-2.1794-.8474-2.3458-2.2024-.1664-1.355.6141-2.566 1.7433-2.7046 1.1292-.1386 2.1795.8474 2.3459 2.2025.1664 1.355-.6142 2.5659-1.7434 2.7045zm-11.3793 46.8298c-1.1292.1386-2.1795-.8475-2.3459-2.2025-.1664-1.355.6142-2.566 1.7434-2.7046 1.1292-.1386 2.1794.8475 2.3458 2.2025.1664 1.355-.6141 2.566-1.7433 2.7046zm-65.8568-13.2715c-1.1292.1387-2.1794-.8474-2.3458-2.2024-.1664-1.355.6141-2.566 1.7433-2.7046 1.1292-.1386 2.1795.8474 2.3459 2.2025.1663 1.355-.6142 2.5659-1.7434 2.7045zm82.8616-82.3988c-1.1292.1387-2.1794-.8474-2.3458-2.2024-.1664-1.355.6141-2.566 1.7433-2.7046 1.1292-.1387 2.1795.8474 2.3459 2.2025.1664 1.355-.6142 2.5659-1.7434 2.7045zM146.866 193.564c-1.1292.1386-2.1794-.8474-2.3458-2.2025-.1664-1.355.6141-2.5659 1.7433-2.7045 1.1292-.1387 2.1795.8474 2.3459 2.2024.1664 1.355-.6142 2.566-1.7434 2.7046zm-81.0106 77.1905c-1.1292.1387-2.1794-.8474-2.3458-2.2024-.1664-1.355.6141-2.566 1.7433-2.7046 1.1292-.1387 2.1795.8474 2.3459 2.2025.1664 1.355-.6142 2.5659-1.7434 2.7045zm69.6603-27.647c-1.1292.1386-2.1795-.8475-2.3459-2.2025-.1664-1.355.6142-2.566 1.7434-2.7046 1.1292-.1386 2.1794.8474 2.3458 2.2025.1664 1.355-.6141 2.5659-1.7433 2.7045zm94.538 46.504c-1.1292.1386-2.1795-.8475-2.3458-2.2025-.1664-1.355.6141-2.566 1.7433-2.7046 1.1292-.1386 2.1795.8475 2.3459 2.2025.1663 1.355-.6142 2.566-1.7434 2.7046zM56.8178 197.1489c-1.1292.1387-2.1795-.8474-2.3458-2.2025-.1664-1.355.6141-2.5659 1.7433-2.7045 1.1292-.1387 2.1795.8474 2.3459 2.2024.1663 1.355-.6142 2.566-1.7434 2.7046zm206.11-31.9485c-1.1292.1387-2.1795-.8474-2.3459-2.2024-.1664-1.355.6142-2.566 1.7434-2.7046 1.1292-.1386 2.1794.8474 2.3458 2.2025.1664 1.355-.6141 2.5659-1.7433 2.7045zm4.9184 134.7137c-1.1292.1386-2.1795-.8475-2.3459-2.2025-.1664-1.355.6141-2.566 1.7433-2.7046 1.1292-.1386 2.1795.8475 2.3459 2.2025.1664 1.355-.6141 2.566-1.7433 2.7046zM81.522 144.446c-1.1292.1386-2.1795-.8475-2.3459-2.2025-.1664-1.355.6142-2.566 1.7434-2.7046 1.1292-.1386 2.1794.8475 2.3458 2.2025.1664 1.355-.6141 2.566-1.7433 2.7046zm-33-51c-1.1292.1386-2.1795-.8475-2.3459-2.2025-.1664-1.355.6142-2.566 1.7434-2.7046 1.1292-.1386 2.1794.8475 2.3458 2.2025.1664 1.355-.6141 2.566-1.7433 2.7046zm83-83c-1.1292.1386-2.1795-.8475-2.3459-2.2025-.1664-1.355.6142-2.566 1.7434-2.7046 1.1292-.1386 2.1794.8475 2.3458 2.2025.1664 1.355-.6141 2.566-1.7433 2.7046zm27 136c-1.1292.1386-2.1795-.8475-2.3459-2.2025-.1664-1.355.6142-2.566 1.7434-2.7046 1.1292-.1386 2.1794.8475 2.3458 2.2025.1664 1.355-.6141 2.566-1.7433 2.7046zm-150-107c-1.1292.1386-2.1795-.8475-2.3459-2.2025-.1664-1.355.6142-2.566 1.7434-2.7046 1.1292-.1386 2.1794.8475 2.3458 2.2025.1664 1.355-.6141 2.566-1.7433 2.7046zm94 47c-1.1292.1386-2.1795-.8475-2.3459-2.2025-.1664-1.355.6142-2.566 1.7434-2.7046 1.1292-.1386 2.1794.8475 2.3458 2.2025.1664 1.355-.6141 2.566-1.7433 2.7046zm38 10c-1.1292.1386-2.1795-.8475-2.3459-2.2025-.1664-1.355.6142-2.566 1.7434-2.7046 1.1292-.1386 2.1794.8475 2.3458 2.2025.1664 1.355-.6141 2.566-1.7433 2.7046z" filter="url(#c)" opacity=".5"/>
  </g>
</svg>
