<svg xmlns="http://www.w3.org/2000/svg" xmlns:xlink="http://www.w3.org/1999/xlink" width="80" height="80">
  <defs>
    <symbol id="weather__clear-day" viewBox="0 0 80 80">
      <path class="path--1" fill="#FF9E14" d="M40 58.7c-10.3277 0-18.7-8.3723-18.7-18.7S29.6723 21.3 40 21.3 58.7 29.6723 58.7 40 50.3277 58.7 40 58.7zm0-3.4c8.45 0 15.3-6.85 15.3-15.3 0-8.45-6.85-15.3-15.3-15.3-8.45 0-15.3 6.85-15.3 15.3 0 8.45 6.85 15.3 15.3 15.3zM40 6c1.4083 0 2.55 1.1417 2.55 2.55v6.8c0 1.4083-1.1417 2.55-2.55 2.55-1.4083 0-2.55-1.1417-2.55-2.55v-6.8C37.45 7.1417 38.5917 6 40 6zm0 56.1c1.4083 0 2.55 1.1417 2.55 2.55v6.8c0 1.4083-1.1417 2.55-2.55 2.55-1.4083 0-2.55-1.1417-2.55-2.55v-6.8c0-1.4083 1.1417-2.55 2.55-2.55zM74 40c0 1.4083-1.1417 2.55-2.55 2.55h-6.8c-1.4083 0-2.55-1.1417-2.55-2.55 0-1.4083 1.1417-2.55 2.55-2.55h6.8c1.4083 0 2.55 1.1417 2.55 2.55zm-56.1 0c0 1.4083-1.1417 2.55-2.55 2.55h-6.8C7.1417 42.55 6 41.4083 6 40c0-1.4083 1.1417-2.55 2.55-2.55h6.8c1.4083 0 2.55 1.1417 2.55 2.55zm46.1416 24.0416c-.9958.9959-2.6104.9959-3.6062 0l-4.8083-4.8083c-.9959-.9958-.9959-2.6104 0-3.6062.9958-.9959 2.6104-.9959 3.6062 0l4.8083 4.8083c.9959.9958.9959 2.6104 0 3.6062zM24.373 24.373c-.9958.9959-2.6104.9959-3.6062 0l-4.8083-4.8083c-.9959-.9958-.9959-2.6104 0-3.6062.9958-.9959 2.6104-.9959 3.6062 0l4.8083 4.8083c.9959.9958.9959 2.6104 0 3.6062zm-8.4145 39.6687c-.9959-.9958-.9959-2.6104 0-3.6062l4.8083-4.8083c.9958-.9959 2.6104-.9959 3.6062 0 .9959.9958.9959 2.6104 0 3.6062l-4.8083 4.8083c-.9958.9959-2.6104.9959-3.6062 0zM55.627 24.373c-.9959-.9958-.9959-2.6104 0-3.6062l4.8083-4.8083c.9958-.9959 2.6104-.9959 3.6062 0 .9959.9958.9959 2.6104 0 3.6062l-4.8083 4.8083c-.9958.9959-2.6104.9959-3.6062 0z"/>
    </symbol>

    <symbol id="weather__clear-night" viewBox="0 0 80 80">
      <path class="path--1" fill="#CB96FF" d="M22 40c0 9.9411 8.0589 18 18 18 6.6387 0 12.5404-3.6234 15.6606-9.1126C43.5036 47.7114 34 37.4656 34 25c0-.6725.0278-1.3416.0829-2.0058C27.0383 25.4442 22 32.1472 22 40zm16-15c0 11.0457 8.9543 20 20 20a20.124 20.124 0 0 0 3.4979-.3048C59.3469 54.5896 50.5389 62 40 62c-12.1503 0-22-9.8497-22-22 0-11.9008 9.4494-21.5946 21.2546-21.9876C38.4434 20.1876 38 22.542 38 25z"/>
      <path class="path--2" fill="currentColor" d="M64 15c-1.6569 0-3-1.3431-3-3s1.3431-3 3-3 3 1.3431 3 3-1.3431 3-3 3zM6 39c-1.6569 0-3-1.3431-3-3s1.3431-3 3-3 3 1.3431 3 3-1.3431 3-3 3zm14-29c-1.1046 0-2-.8954-2-2s.8954-2 2-2 2 .8954 2 2-.8954 2-2 2zm54 32c-1.1046 0-2-.8954-2-2s.8954-2 2-2 2 .8954 2 2-.8954 2-2 2zM49 28c-1.1046 0-2-.8954-2-2s.8954-2 2-2 2 .8954 2 2-.8954 2-2 2z"/>
    </symbol>

    <symbol id="weather__cloudy-day" viewBox="0 0 80 80">
      <path class="path--1" fill="#FF9E14" d="M10 49.659V54h-.5124c.1606.1196.3329.2162.5124.2897V54h-.5124a2.382 2.382 0 0 1-.2615-.2261c-.9226-.9226-.9226-2.4185 0-3.3411L10 49.6589zm37.4346-24.9706a16.8084 16.8084 0 0 0-3.8904-.6665C41.0426 20.0013 36.5838 17.325 31.5 17.325c-7.8286 0-14.175 6.3464-14.175 14.175 0 2.1091.4606 4.1107 1.2868 5.9095-1.0318.2151-2.0321.578-2.9657 1.0876-.9458-2.1398-1.4711-4.5071-1.4711-6.9971 0-9.5683 7.7567-17.325 17.325-17.325 7.15 0 13.2885 4.3314 15.9346 10.5134zM31.5 0c1.3048 0 2.3625 1.0577 2.3625 2.3625v6.3c0 1.3048-1.0577 2.3625-2.3625 2.3625-1.3048 0-2.3625-1.0577-2.3625-2.3625v-6.3C29.1375 1.0577 30.1952 0 31.5 0zM11.025 31.5c0 1.3048-1.0577 2.3625-2.3625 2.3625h-6.3C1.0577 33.8625 0 32.8048 0 31.5c0-1.3048 1.0577-2.3625 2.3625-2.3625h6.3c1.3048 0 2.3625 1.0577 2.3625 2.3625zm5.997-14.478c-.9226.9226-2.4185.9226-3.341 0L9.226 12.5672c-.9226-.9226-.9226-2.4184 0-3.341.9226-.9227 2.4185-.9227 3.3411 0l4.4548 4.4547c.9226.9226.9226 2.4185 0 3.341zm28.956 0c-.9226-.9226-.9226-2.4185 0-3.341l4.4548-4.4549c.9226-.9226 2.4184-.9226 3.341 0 .9227.9226.9227 2.4185 0 3.3411l-4.4547 4.4548c-.9226.9226-2.4185.9226-3.341 0z"/>
      <path class="path--2" fill="currentColor" d="M55.7175 34.5242c-3.7896-6.4226-11.7198-9.2766-18.5716-6.4088-5.868 2.456-9.3463 8.48-8.7228 14.858.1075 1.0992-.6965 2.0776-1.7959 2.185-1.0993.1075-2.0776-.6965-2.185-1.7959a19.0752 19.0752 0 0 1-.0793-2.5242c-3.4942-1.3856-7.4818-.5738-9.9656 2.1461-2.7212 2.98-2.9253 7.4701-.5415 10.8667.6346.904.416 2.1514-.4881 2.786-.9041.6345-2.1514.416-2.786-.4882-3.4434-4.9062-3.1448-11.4742.8619-15.8618 3.4182-3.7432 8.7192-5.0029 13.5016-3.4851 1.4057-5.4594 5.23-10.1054 10.6564-12.3765 9.4935-3.9734 20.5352.6415 24.6848 10.2805.0267.062.05.1248.07.1878.4075.0904.8138.1964 1.2184.3184 8.5546 2.5788 13.563 11.415 11.5734 20.2282-.2432 1.0775-1.3138 1.7537-2.3913 1.5105-1.0774-.2432-1.7537-1.3138-1.5105-2.3913 1.5319-6.7862-2.3025-13.551-8.8261-15.5176-5.4643-1.6472-11.3836.5222-14.6792 5.2669-.6301.9072-1.8764 1.1318-2.7836.5017-.9072-.6302-1.1318-1.8764-.5017-2.7836 3.1121-4.4805 8.0468-7.1946 13.2617-7.5028zM71.1973 57c-1.1046 0-2-.8954-2-2s.8954-2 2-2H78c1.1046 0 2 .8954 2 2s-.8954 2-2 2h-6.8027zM6 57c-1.1046 0-2-.8954-2-2s.8954-2 2-2h6.2188c1.1045 0 2 .8954 2 2s-.8955 2-2 2H6z"/>
    </symbol>

    <symbol id="weather__cloudy-night" viewBox="0 0 80 80">
      <path class="path--1" fill="#CB96FF" d="M69.3115 41.2078c-.6419-1.1859-1.4395-2.2823-2.3752-3.2548 3.0368-1.5977 5.5758-4.0549 7.2788-7.078-12.048-1.176-21.4663-11.4218-21.4663-23.8874 0-.6725.0275-1.3416.0821-2.0058-6.9813 2.45-11.9744 9.153-11.9744 17.0058 0 .0292 0 .0585.0002.0877a16.0496 16.0496 0 0 0-3.9416.927 22.5753 22.5753 0 0 1-.0228-1.0147C36.8923 10.0868 46.257.393 57.9563 0c-.804 2.1752-1.2434 4.5296-1.2434 6.9876 0 11.0457 8.874 20 19.8206 20 1.1825 0 2.3409-.1045 3.4665-.3048-1.345 6.2431-5.3167 11.4973-10.6885 14.525zM20 25c-1.6569 0-3-1.3431-3-3s1.3431-3 3-3 3 1.3431 3 3-1.3431 3-3 3zM13 9c-1.1046 0-2-.8954-2-2s.8954-2 2-2 2 .8954 2 2-.8954 2-2 2zM6 34c-1.1046 0-2-.8954-2-2s.8954-2 2-2 2 .8954 2 2-.8954 2-2 2z"/>
      <path class="path--2" fill="currentColor" d="M55.7175 33.5242c-3.7896-6.4226-11.7198-9.2766-18.5716-6.4088-5.868 2.456-9.3463 8.48-8.7228 14.858.1075 1.0992-.6965 2.0776-1.7959 2.185-1.0993.1075-2.0776-.6965-2.185-1.7959a19.0752 19.0752 0 0 1-.0793-2.5242c-3.4942-1.3856-7.4818-.5738-9.9656 2.1461-2.7212 2.98-2.9253 7.4701-.5415 10.8667.6346.904.416 2.1514-.4881 2.786-.9041.6345-2.1514.416-2.786-.4882-3.4434-4.9062-3.1448-11.4742.8619-15.8618 3.4182-3.7432 8.7192-5.0029 13.5016-3.4851 1.4057-5.4594 5.23-10.1054 10.6564-12.3765 9.4935-3.9734 20.5352.6415 24.6848 10.2805.0267.062.05.1248.07.1878.4075.0904.8138.1964 1.2184.3184 8.5546 2.5788 13.563 11.415 11.5734 20.2282-.2432 1.0775-1.3138 1.7537-2.3913 1.5105-1.0774-.2432-1.7537-1.3138-1.5105-2.3913 1.5319-6.7862-2.3025-13.551-8.8261-15.5176-5.4643-1.6472-11.3836.5222-14.6792 5.2669-.6301.9072-1.8764 1.1318-2.7836.5017-.9072-.6302-1.1318-1.8764-.5017-2.7836 3.1121-4.4805 8.0468-7.1946 13.2617-7.5028zM71.1973 56c-1.1046 0-2-.8954-2-2s.8954-2 2-2H78c1.1046 0 2 .8954 2 2s-.8954 2-2 2h-6.8027zM6 56c-1.1046 0-2-.8954-2-2s.8954-2 2-2h6.2188c1.1045 0 2 .8954 2 2s-.8955 2-2 2H6z"/>
    </symbol>

    <symbol id="weather__overcast" viewBox="0 0 80 80">
      <path class="path--1" fill="currentColor" d="M71.1973 57c-1.1046 0-2-.8954-2-2s.8954-2 2-2H78c1.1046 0 2 .8954 2 2s-.8954 2-2 2h-6.8027zM45.7411 44.3089c-.6301.9072-1.8764 1.1318-2.7836.5017-.9072-.6302-1.1318-1.8764-.5017-2.7836 4.2699-6.1473 11.9707-8.9697 19.119-6.8148 8.5546 2.5788 13.563 11.415 11.5734 20.2282-.2432 1.0775-1.3138 1.7537-2.3913 1.5105-1.0774-.2432-1.7537-1.3138-1.5105-2.3913 1.5319-6.7862-2.3025-13.551-8.8261-15.5176-5.4643-1.6472-11.3836.5222-14.6792 5.2669zM9.8558 53.851c.6346.904.416 2.1514-.4881 2.786-.9041.6345-2.1514.416-2.786-.4882-3.4434-4.9062-3.1448-11.4742.8619-15.8618 3.8908-4.2607 10.221-5.3037 15.4492-2.6956.9884.4931 1.39 1.694.8969 2.6825-.4931.9884-1.6941 1.39-2.6825.8969-3.6581-1.825-8.0478-1.1017-10.7099 1.8135-2.7212 2.98-2.9253 7.4701-.5415 10.8667zM2 57c-1.1046 0-2-.8954-2-2s.8954-2 2-2h6.2188c1.1045 0 2 .8954 2 2s-.8955 2-2 2H2zm22.4231-14.0267c.1075 1.0993-.6965 2.0777-1.7959 2.1851-1.0993.1075-2.0776-.6965-2.185-1.7959-.7922-8.1015 3.6494-15.7938 11.1594-18.937 9.4935-3.9734 20.5352.6415 24.6848 10.2805.4367 1.0146-.0316 2.191-1.0462 2.6279-1.0145.4367-2.191-.0317-2.6278-1.0462-3.2907-7.6438-12.0162-11.2906-19.4665-8.1723-5.868 2.456-9.3463 8.48-8.7228 14.858z"/>
    </symbol>

    <symbol id="weather__windy" viewBox="0 0 80 80">
      <path class="path--1" fill="#B8B8B8" d="M20 66c-1.1046 0-2-.8954-2-2s.8954-2 2-2h48c4.4183 0 8-3.5817 8-8V42c0-1.1046.8954-2 2-2s2 .8954 2 2v12c0 6.6274-5.3726 12-12 12H20zM5.0426 72.3636C3.9145 72.3636 3 71.3868 3 70.1818S3.9145 68 5.0426 68H45.383C48.4852 68 51 70.6863 51 74s-2.5148 6-5.617 6h-5.617c-1.1281 0-2.0426-.9768-2.0426-2.1818s.9145-2.1818 2.0426-2.1818h5.617c.846 0 1.5319-.7327 1.5319-1.6364 0-.9037-.6859-1.6364-1.532-1.6364H5.0427zM56 72c-1.1046 0-2-.8954-2-2s.8954-2 2-2h18c1.1046 0 2 .8954 2 2s-.8954 2-2 2H56zM15 60c-1.1046 0-2-.8954-2-2s.8954-2 2-2h43c1.6569 0 3-1.3431 3-3s-1.3431-3-3-3H45c-1.1046 0-2-.8954-2-2s.8954-2 2-2h13c3.866 0 7 3.134 7 7s-3.134 7-7 7H15z"/>
      <path class="path--2" fill="currentColor" d="M44.741 44.3089c-.63.9072-1.8763 1.1318-2.7835.5017-.9072-.6302-1.1318-1.8764-.5017-2.7836 4.2699-6.1473 11.9707-8.9697 19.119-6.8148 8.5546 2.5788 13.563 11.415 11.5734 20.2282-.2432 1.0775-1.3138 1.7537-2.3913 1.5105-1.0774-.2432-1.7537-1.3138-1.5105-2.3913 1.5319-6.7862-2.3025-13.551-8.8261-15.5176-5.4643-1.6472-11.3836.5222-14.6792 5.2669zM9.8559 53.851c.6346.904.416 2.1514-.4881 2.786-.9041.6345-2.1514.416-2.786-.4882-3.4434-4.9062-3.1448-11.4742.8619-15.8618 3.8908-4.2607 10.221-5.3037 15.4492-2.6956.9884.4931 1.39 1.694.8969 2.6825-.4931.9884-1.6941 1.39-2.6825.8969-3.6581-1.825-8.0478-1.1017-10.7099 1.8135-2.7212 2.98-2.9253 7.4701-.5415 10.8667zM2 57c-1.1046 0-2-.8954-2-2s.8954-2 2-2h6.2188c1.1045 0 2 .8954 2 2s-.8955 2-2 2H2zm22.4231-14.0267c.1075 1.0993-.6965 2.0777-1.7959 2.1851-1.0993.1075-2.0776-.6965-2.185-1.7959-.7922-8.1015 3.6494-15.7938 11.1594-18.937 9.4935-3.9734 20.5352.6415 24.6848 10.2805.4367 1.0146-.0316 2.191-1.0462 2.6279-1.0145.4367-2.191-.0317-2.6278-1.0462-3.2907-7.6438-12.0162-11.2906-19.4665-8.1723-5.868 2.456-9.3463 8.48-8.7228 14.858z"/>
    </symbol>

    <symbol id="weather__light-rain" viewBox="0 0 80 80">
      <path class="path--1" fill="#4285CA" d="M31.426 56.8865c.4245-1.0197 1.5953-1.5023 2.615-1.0777 1.0198.4245 1.5023 1.5953 1.0777 2.615l-5.765 13.848c-.4244 1.0197-1.5952 1.5022-2.615 1.0777-1.0197-.4246-1.5022-1.5954-1.0777-2.615l5.765-13.848zm13.2276-5.1552c.4245-1.0197 1.5953-1.5022 2.615-1.0777 1.0198.4245 1.5023 1.5953 1.0778 2.615l-3.8433 9.232c-.4245 1.0197-1.5953 1.5023-2.615 1.0777-1.0198-.4245-1.5023-1.5953-1.0778-2.615l3.8433-9.232zm-7.6866 18.464c.4245-1.0198 1.5953-1.5023 2.615-1.0778 1.0198.4245 1.5023 1.5953 1.0778 2.615l-2.3134 5.557c-.4245 1.0197-1.5953 1.5022-2.615 1.0777-1.0198-.4245-1.5023-1.5953-1.0778-2.615l2.3134-5.557z"/>
      <path class="path--2" fill="currentColor" d="M71.1973 57c-1.1046 0-2-.8954-2-2s.8954-2 2-2H78c1.1046 0 2 .8954 2 2s-.8954 2-2 2h-6.8027zM45.7411 44.3089c-.6301.9072-1.8764 1.1318-2.7836.5017-.9072-.6302-1.1318-1.8764-.5017-2.7836 4.2699-6.1473 11.9707-8.9697 19.119-6.8148 8.5546 2.5788 13.563 11.415 11.5734 20.2282-.2432 1.0775-1.3138 1.7537-2.3913 1.5105-1.0774-.2432-1.7537-1.3138-1.5105-2.3913 1.5319-6.7862-2.3025-13.551-8.8261-15.5176-5.4643-1.6472-11.3836.5222-14.6792 5.2669zM9.8558 53.851c.6346.904.416 2.1514-.4881 2.786-.9041.6345-2.1514.416-2.786-.4882-3.4434-4.9062-3.1448-11.4742.8619-15.8618 3.8908-4.2607 10.221-5.3037 15.4492-2.6956.9884.4931 1.39 1.694.8969 2.6825-.4931.9884-1.6941 1.39-2.6825.8969-3.6581-1.825-8.0478-1.1017-10.7099 1.8135-2.7212 2.98-2.9253 7.4701-.5415 10.8667zM2 57c-1.1046 0-2-.8954-2-2s.8954-2 2-2h6.2188c1.1045 0 2 .8954 2 2s-.8955 2-2 2H2zm22.4231-14.0267c.1075 1.0993-.6965 2.0777-1.7959 2.1851-1.0993.1075-2.0776-.6965-2.185-1.7959-.7922-8.1015 3.6494-15.7938 11.1594-18.937 9.4935-3.9734 20.5352.6415 24.6848 10.2805.4367 1.0146-.0316 2.191-1.0462 2.6279-1.0145.4367-2.191-.0317-2.6278-1.0462-3.2907-7.6438-12.0162-11.2906-19.4665-8.1723-5.868 2.456-9.3463 8.48-8.7228 14.858z"/>
    </symbol>

    <symbol id="weather__rain" viewBox="0 0 80 80">
      <path class="path--1" fill="#4285CA" d="M31.426 56.8865c.4245-1.0197 1.5953-1.5023 2.615-1.0777 1.0198.4245 1.5023 1.5953 1.0777 2.615l-5.765 13.848c-.4244 1.0197-1.5952 1.5022-2.615 1.0777-1.0197-.4246-1.5022-1.5954-1.0777-2.615l5.765-13.848zm-8.7724-5.1552c.4245-1.0197 1.5953-1.5022 2.615-1.0777 1.0198.4245 1.5023 1.5953 1.0778 2.615l-10 24.0209c-.4245 1.0197-1.5953 1.5022-2.615 1.0777-1.0198-.4245-1.5023-1.5953-1.0778-2.615l10-24.0209zm22 0c.4245-1.0197 1.5953-1.5022 2.615-1.0777 1.0198.4245 1.5023 1.5953 1.0778 2.615l-10 24.0209c-.4245 1.0197-1.5953 1.5022-2.615 1.0777-1.0198-.4245-1.5023-1.5953-1.0778-2.615l10-24.0209zm11 0c.4245-1.0197 1.5953-1.5022 2.615-1.0777 1.0198.4245 1.5023 1.5953 1.0778 2.615l-3.8433 9.232c-.4245 1.0197-1.5953 1.5023-2.615 1.0777-1.0198-.4245-1.5023-1.5953-1.0778-2.615l3.8433-9.232zm-7.6866 18.464c.4245-1.0198 1.5953-1.5023 2.615-1.0778 1.0198.4245 1.5023 1.5953 1.0778 2.615l-2.3134 5.557c-.4245 1.0197-1.5953 1.5022-2.615 1.0777-1.0198-.4245-1.5023-1.5953-1.0778-2.615l2.3134-5.557z"/>
      <path class="path--2" fill="currentColor" d="M71.1973 57c-1.1046 0-2-.8954-2-2s.8954-2 2-2H78c1.1046 0 2 .8954 2 2s-.8954 2-2 2h-6.8027zM45.7411 44.3089c-.6301.9072-1.8764 1.1318-2.7836.5017-.9072-.6302-1.1318-1.8764-.5017-2.7836 4.2699-6.1473 11.9707-8.9697 19.119-6.8148 8.5546 2.5788 13.563 11.415 11.5734 20.2282-.2432 1.0775-1.3138 1.7537-2.3913 1.5105-1.0774-.2432-1.7537-1.3138-1.5105-2.3913 1.5319-6.7862-2.3025-13.551-8.8261-15.5176-5.4643-1.6472-11.3836.5222-14.6792 5.2669zM9.8558 53.851c.6346.904.416 2.1514-.4881 2.786-.9041.6345-2.1514.416-2.786-.4882-3.4434-4.9062-3.1448-11.4742.8619-15.8618 3.8908-4.2607 10.221-5.3037 15.4492-2.6956.9884.4931 1.39 1.694.8969 2.6825-.4931.9884-1.6941 1.39-2.6825.8969-3.6581-1.825-8.0478-1.1017-10.7099 1.8135-2.7212 2.98-2.9253 7.4701-.5415 10.8667zM2 57c-1.1046 0-2-.8954-2-2s.8954-2 2-2h6.2188c1.1045 0 2 .8954 2 2s-.8955 2-2 2H2zm22.4231-14.0267c.1075 1.0993-.6965 2.0777-1.7959 2.1851-1.0993.1075-2.0776-.6965-2.185-1.7959-.7922-8.1015 3.6494-15.7938 11.1594-18.937 9.4935-3.9734 20.5352.6415 24.6848 10.2805.4367 1.0146-.0316 2.191-1.0462 2.6279-1.0145.4367-2.191-.0317-2.6278-1.0462-3.2907-7.6438-12.0162-11.2906-19.4665-8.1723-5.868 2.456-9.3463 8.48-8.7228 14.858z"/>
    </symbol>

    <symbol id="weather__thunder" viewBox="0 0 80 80">
      <path class="path--1" fill="#FF9E14" d="M30 66c-1.5356 0-2.4984-1.659-1.7365-2.9923l8-14c.548-.959 1.7697-1.2922 2.7288-.7442.959.548 1.2922 1.7697.7442 2.7288L33.4464 62H44c1.5356 0 2.4984 1.659 1.7365 2.9923l-8 14c-.548.959-1.7697 1.2922-2.7288.7442-.959-.548-1.2922-1.7697-.7442-2.7288L40.5536 66H30z"/>
      <path class="path--2" fill="currentColor" d="M71.1973 57c-1.1046 0-2-.8954-2-2s.8954-2 2-2H78c1.1046 0 2 .8954 2 2s-.8954 2-2 2h-6.8027zM45.7411 44.3089c-.6301.9072-1.8764 1.1318-2.7836.5017-.9072-.6302-1.1318-1.8764-.5017-2.7836 4.2699-6.1473 11.9707-8.9697 19.119-6.8148 8.5546 2.5788 13.563 11.415 11.5734 20.2282-.2432 1.0775-1.3138 1.7537-2.3913 1.5105-1.0774-.2432-1.7537-1.3138-1.5105-2.3913 1.5319-6.7862-2.3025-13.551-8.8261-15.5176-5.4643-1.6472-11.3836.5222-14.6792 5.2669zM9.8558 53.851c.6346.904.416 2.1514-.4881 2.786-.9041.6345-2.1514.416-2.786-.4882-3.4434-4.9062-3.1448-11.4742.8619-15.8618 3.8908-4.2607 10.221-5.3037 15.4492-2.6956.9884.4931 1.39 1.694.8969 2.6825-.4931.9884-1.6941 1.39-2.6825.8969-3.6581-1.825-8.0478-1.1017-10.7099 1.8135-2.7212 2.98-2.9253 7.4701-.5415 10.8667zM2 57c-1.1046 0-2-.8954-2-2s.8954-2 2-2h6.2188c1.1045 0 2 .8954 2 2s-.8955 2-2 2H2zm22.4231-14.0267c.1075 1.0993-.6965 2.0777-1.7959 2.1851-1.0993.1075-2.0776-.6965-2.185-1.7959-.7922-8.1015 3.6494-15.7938 11.1594-18.937 9.4935-3.9734 20.5352.6415 24.6848 10.2805.4367 1.0146-.0316 2.191-1.0462 2.6279-1.0145.4367-2.191-.0317-2.6278-1.0462-3.2907-7.6438-12.0162-11.2906-19.4665-8.1723-5.868 2.456-9.3463 8.48-8.7228 14.858z"/>
    </symbol>

    <symbol id="weather__snow" viewBox="0 0 80 80">
      <path class="path--1" fill="#99C4F1" d="M55.2685 58.5347v-4.4633c0-.5917.4857-1.0714 1.0849-1.0714.5991 0 1.0849.4797 1.0849 1.0714v4.4633l3.7805-2.3624c.5018-.3135 1.166-.1558 1.4835.3523.3175.5081.1681 1.1743-.3337 1.4878l-3.968 2.4795 3.9908 2.4937c.5019.3136.6513.9797.3338 1.4878-.3176.5081-.9818.6658-1.4836.3523l-3.8033-2.3766v4.4795c0 .5917-.4858 1.0714-1.085 1.0714-.5991 0-1.0848-.4797-1.0848-1.0714V62.449l-3.8034 2.3766c-.5018.3135-1.166.1558-1.4835-.3523-.3175-.5081-.1681-1.1742.3337-1.4878l3.9908-2.4937-3.968-2.4795c-.5018-.3135-.6512-.9797-.3337-1.4878s.9817-.6658 1.4836-.3523l3.7805 2.3624zm-27.434-.2033V50c0-1.1046.9067-2 2.0251-2 1.1185 0 2.0252.8954 2.0252 2v8.3314l7.057-4.4097c.9366-.5853 2.1765-.291 2.7692.6576.5927.9485.3138 2.1919-.623 2.7772l-7.4068 4.6283 7.4495 4.655c.9367.5853 1.2156 1.8287.623 2.7772-.5928.9485-1.8326 1.243-2.7693.6576l-7.0996-4.4363V74c0 1.1046-.9067 2-2.0252 2-1.1184 0-2.0251-.8954-2.0251-2v-8.3617l-7.0996 4.4363c-.9368.5853-2.1766.291-2.7693-.6576-.5927-.9485-.3138-2.1919.623-2.7772l7.4494-4.655-7.4068-4.6283c-.9367-.5853-1.2156-1.8287-.623-2.7772.5928-.9485 1.8326-1.243 2.7693-.6576l7.057 4.4097z"/>
      <path class="path--2" fill="currentColor" d="M71.1973 57c-1.1046 0-2-.8954-2-2s.8954-2 2-2H78c1.1046 0 2 .8954 2 2s-.8954 2-2 2h-6.8027zM45.7411 44.3089c-.6301.9072-1.8764 1.1318-2.7836.5017-.9072-.6302-1.1318-1.8764-.5017-2.7836 4.2699-6.1473 11.9707-8.9697 19.119-6.8148 8.5546 2.5788 13.563 11.415 11.5734 20.2282-.2432 1.0775-1.3138 1.7537-2.3913 1.5105-1.0774-.2432-1.7537-1.3138-1.5105-2.3913 1.5319-6.7862-2.3025-13.551-8.8261-15.5176-5.4643-1.6472-11.3836.5222-14.6792 5.2669zM9.8558 53.851c.6346.904.416 2.1514-.4881 2.786-.9041.6345-2.1514.416-2.786-.4882-3.4434-4.9062-3.1448-11.4742.8619-15.8618 3.8908-4.2607 10.221-5.3037 15.4492-2.6956.9884.4931 1.39 1.694.8969 2.6825-.4931.9884-1.6941 1.39-2.6825.8969-3.6581-1.825-8.0478-1.1017-10.7099 1.8135-2.7212 2.98-2.9253 7.4701-.5415 10.8667zM2 57c-1.1046 0-2-.8954-2-2s.8954-2 2-2h6.2188c1.1045 0 2 .8954 2 2s-.8955 2-2 2H2zm22.4231-14.0267c.1075 1.0993-.6965 2.0777-1.7959 2.1851-1.0993.1075-2.0776-.6965-2.185-1.7959-.7922-8.1015 3.6494-15.7938 11.1594-18.937 9.4935-3.9734 20.5352.6415 24.6848 10.2805.4367 1.0146-.0316 2.191-1.0462 2.6279-1.0145.4367-2.191-.0317-2.6278-1.0462-3.2907-7.6438-12.0162-11.2906-19.4665-8.1723-5.868 2.456-9.3463 8.48-8.7228 14.858z"/>
    </symbol>

  </defs>
</svg>
