<svg xmlns="http://www.w3.org/2000/svg" xmlns:xlink="http://www.w3.org/1999/xlink" width="80" height="80">
  <defs>
    <symbol id="icon__settings" viewBox="0 0 80 80">
      <path fill="currentColor" fill-rule="evenodd" d="M66.6194 26.1516a29.8127 29.8127 0 0 1 1.9977 4.8182l7.7988.8152C78.4529 31.998 80 33.7152 80 35.7634v8.473c0 2.048-1.547 3.7653-3.5841 3.9783l-7.7987.8152a29.8127 29.8127 0 0 1-1.9978 4.8185l4.9394 6.0927c1.2898 1.591 1.1695 3.8992-.2788 5.3474l-5.9913 5.9913c-1.4482 1.4483-3.7565 1.5686-5.3474.2788l-6.0926-4.9394a29.8127 29.8127 0 0 1-4.8188 1.998l-.8152 7.7987C48.0017 78.4529 46.2845 80 44.2364 80h-8.473c-2.0482 0-3.7654-1.547-3.9784-3.5841l-.8152-7.7988a29.8127 29.8127 0 0 1-4.8182-1.9977l-6.0927 4.9394c-1.591 1.2898-3.8992 1.1695-5.3474-.2788l-5.9913-5.9913c-1.4483-1.4482-1.5686-3.7565-.2788-5.3474l4.9394-6.0926a29.8127 29.8127 0 0 1-1.998-4.8188l-7.7987-.8152C1.5471 48.0017 0 46.2845 0 44.2364v-8.473c0-2.0482 1.547-3.7654 3.5841-3.9784l7.7988-.8152a29.8127 29.8127 0 0 1 1.9979-4.8185l-4.9394-6.0926c-1.2898-1.591-1.1695-3.8992.2788-5.3474L14.7115 8.72c1.4482-1.4483 3.7565-1.5686 5.3474-.2788l6.0927 4.9394a29.8127 29.8127 0 0 1 4.8182-1.9977l.8152-7.7988C31.998 1.5471 33.7152 0 35.7634 0h8.473c2.048 0 3.7653 1.547 3.9783 3.5841l.8152 7.7987a29.8127 29.8127 0 0 1 4.8188 1.998l6.0926-4.9394c1.591-1.2898 3.8992-1.1695 5.3474.2788l5.9913 5.9913c1.4483 1.4482 1.5686 3.7565.2788 5.3474l-4.9394 6.0927zM40 52.5c6.9036 0 12.5-5.5964 12.5-12.5S46.9036 27.5 40 27.5 27.5 33.0964 27.5 40 33.0964 52.5 40 52.5z"/>
    </symbol>

    <symbol id="icon__cloudiness" viewBox="0 0 80 80">
      <path class="path--1" fill="currentColor" fill-rule="nonzero" d="M14 65C6.268 65 0 58.732 0 51s6.268-14 14-14c.3362 0 .6697.0119 1 .0352V37c0-12.1503 9.8497-22 22-22 10.3035 0 18.9526 7.083 21.3438 16.6455C59.8235 31.2251 61.3855 31 63 31c9.3888 0 17 7.6112 17 17s-7.6112 17-17 17H14z"/>
    </symbol>

    <symbol id="icon__humidity" viewBox="0 0 80 80">
      <path class="path--1" fill="currentColor" fill-rule="nonzero" d="M40 80c-16.5685 0-28-13.4315-28-30C12 23.4315 39 0 40 0s28 23.4315 28 50c0 16.5685-11.4315 30-28 30zm-9.35-30.45c2.1667 0 3.8833-.575 5.15-1.725 1.2667-1.15 1.95-2.7417 2.05-4.775.0667-1.1333.1-1.8667.1-2.2 0-.3667-.0333-1.15-.1-2.35-.1-2.0667-.7583-3.7083-1.975-4.925-1.2167-1.2167-2.9583-1.825-5.225-1.825-2.2667 0-4 .6083-5.2 1.825-1.2 1.2167-1.85 2.8583-1.95 4.925-.0333.6-.05 1.3833-.05 2.35 0 .9.0167 1.6333.05 2.2.1 2.0333.775 3.625 2.025 4.775 1.25 1.15 2.9583 1.725 5.125 1.725zM26.45 67h1.6c.4 0 .7083-.075.925-.225.2167-.15.4583-.3917.725-.725l24.65-32.5c.1333-.1667.2-.35.2-.55 0-.3-.0917-.5417-.275-.725-.1833-.1833-.425-.275-.725-.275h-1.6c-.4 0-.7083.0667-.925.2-.2167.1333-.4583.3833-.725.75l-24.7 32.5c-.1333.1667-.2.35-.2.55 0 .3.1.5417.3.725.2.1833.45.275.75.275zm22.8.3c2.1667 0 3.8833-.6167 5.15-1.85 1.2667-1.2333 1.95-2.8667 2.05-4.9.0667-1.1333.1-1.8667.1-2.2 0-.3333-.0333-1.1-.1-2.3-.1-2.0667-.7583-3.7083-1.975-4.925-1.2167-1.2167-2.9583-1.825-5.225-1.825-2.2667 0-4 .6083-5.2 1.825-1.2 1.2167-1.85 2.8583-1.95 4.925-.0667 1.3333-.1 2.1667-.1 2.5 0 .3333.0333 1 .1 2 .1 2.0333.775 3.6667 2.025 4.9 1.25 1.2333 2.9583 1.85 5.125 1.85zm-18.6-20.8c-1.2 0-2.075-.3583-2.625-1.075-.55-.7167-.875-1.575-.975-2.575-.0333-.6-.05-1.3-.05-2.1 0-.8333.0167-1.5167.05-2.05.0667-1.0333.3833-1.9083.95-2.625.5667-.7167 1.45-1.075 2.65-1.075s2.0917.3583 2.675 1.075c.5833.7167.9083 1.5917.975 2.625.0667 1.0667.1 1.75.1 2.05 0 .2-.0333.9-.1 2.1-.1 1.0333-.4333 1.9-1 2.6-.5667.7-1.45 1.05-2.65 1.05zm18.6 17.55c-1.2 0-2.0833-.3583-2.65-1.075-.5667-.7167-.8833-1.575-.95-2.575-.0333-.6-.05-1.3167-.05-2.15 0-.8.0167-1.4667.05-2 .0667-1.0333.3833-1.9083.95-2.625.5667-.7167 1.45-1.075 2.65-1.075s2.0917.3583 2.675 1.075c.5833.7167.9083 1.5917.975 2.625.0667 1.0667.1 1.7333.1 2 0 .2333-.0333.95-.1 2.15-.1 1.0333-.4333 1.9-1 2.6-.5667.7-1.45 1.05-2.65 1.05z"/>
    </symbol>

    <symbol id="icon__pressure" viewBox="0 0 80 80">
      <path class="path--1" fill="currentColor" fill-rule="nonzero" d="M41.2547 30.201C52.9266 19.7862 58.8723 14.6886 59.0919 14.908c.2195.2196-4.878 6.1653-15.2929 17.8372.4575 1.3888.134 2.9786-.9706 4.0831-1.562 1.5621-4.0947 1.5621-5.6568 0-1.5621-1.562-1.5621-4.0947 0-5.6568 1.1045-1.1046 2.6943-1.4281 4.083-.9706zM49 66.796V80H31V66.796C16.59 62.8508 6 49.662 6 34 6 15.2223 21.2223 0 40 0s34 15.2223 34 34c0 15.662-10.59 28.8507-25 32.796zM40 64c16.5685 0 30-13.4315 30-30S56.5685 4 40 4 10 17.4315 10 34s13.4315 30 30 30zM14 33h8v2h-8v-2zm44 0h8v2h-8v-2zM41 8v8h-2V8h2zm-18.6777 6.9081l5.6569 5.6569-1.4142 1.4142-5.6569-5.6569 1.4142-1.4142zm-3.7161 35.5654C23.2986 46.562 31.1307 44 40 44c8.8693 0 16.7014 2.5621 21.3938 6.4735C56.4568 56.8757 48.71 61 40 61c-8.71 0-16.4567-4.1243-21.3938-10.5265z"/>
    </symbol>

    <symbol id="icon__rainlevel" viewBox="0 0 80 80">
      <path class="path--1" fill="currentColor" fill-rule="nonzero" d="M15.0201 4.7172c.1562-1.0935 1.1693-1.8533 2.2627-1.6971 1.0935.1562 1.8533 1.1693 1.6971 2.2627l-2.8284 19.799c-.1562 1.0935-1.1693 1.8533-2.2628 1.697-1.0934-.1561-1.8532-1.1692-1.697-2.2627L15.02 4.7171zm-3.9598 27.7185c.1562-1.0934 1.1693-1.8532 2.2627-1.697 1.0935.1562 1.8533 1.1693 1.6971 2.2627l-5.6569 39.598c-.1562 1.0935-1.1692 1.8533-2.2627 1.697-1.0935-.1561-1.8533-1.1692-1.697-2.2627l5.6568-39.598zM29.0201 4.7172c.1562-1.0935 1.1693-1.8533 2.2627-1.6971 1.0935.1562 1.8533 1.1693 1.6971 2.2627l-10 70c-.1562 1.0935-1.1693 1.8533-2.2627 1.6971-1.0935-.1562-1.8533-1.1693-1.6971-2.2627l10-70zm14 0c.1562-1.0935 1.1693-1.8533 2.2627-1.6971 1.0935.1562 1.8533 1.1693 1.6971 2.2627l-.5657 3.9598c-.1562 1.0935-1.1693 1.8533-2.2627 1.6971-1.0935-.1562-1.8533-1.1693-1.697-2.2627l.5656-3.9598zm-1.9799 13.8593c.1562-1.0935 1.1693-1.8533 2.2627-1.6971 1.0935.1562 1.8533 1.1693 1.6971 2.2627l-5.374 37.6181c-.1562 1.0935-1.1693 1.8533-2.2628 1.697-1.0934-.1561-1.8532-1.1692-1.697-2.2627l5.374-37.618zM34.252 66.094c.1562-1.0934 1.1693-1.8532 2.2627-1.697 1.0935.1562 1.8533 1.1692 1.697 2.2627l-.5656 3.9598c-.1562 1.0935-1.1693 1.8533-2.2628 1.697-1.0934-.1561-1.8532-1.1692-1.697-2.2627l.5657-3.9598zM57.02 4.7172c.1562-1.0935 1.1693-1.8533 2.2627-1.6971 1.0935.1562 1.8533 1.1693 1.6971 2.2627L52.7775 62.7c-.1562 1.0935-1.1693 1.8533-2.2628 1.697-1.0934-.1561-1.8532-1.1692-1.697-2.2627L57.02 4.7172zm11.7373 15.8391c.1562-1.0934 1.1692-1.8532 2.2627-1.697 1.0935.1562 1.8533 1.1693 1.697 2.2627L64.98 75.2828c-.1562 1.0935-1.1693 1.8533-2.2627 1.6971-1.0935-.1562-1.8533-1.1693-1.6971-2.2627l7.7373-54.1609z"/>
    </symbol>

    <symbol id="icon__snowlevel" viewBox="0 0 80 80">
      <path class="path--1" fill="currentColor" fill-rule="nonzero" d="M46.5359 38.5359L48 40l-1.4641 1.4641 4.8564 2.8039 8.2766-3.5355c1.0158-.4339 2.191.0378 2.6249 1.0536.4339 1.0158-.0378 2.191-1.0536 2.6249l-5.5178 2.357 6.0622 3.5 8.1962-2.1962 4.6602 11.9283-12.6602 1.9282-2.1962-8.1962-6.062-3.5.7176 5.9568c.1321 1.0967-.6498 2.0928-1.7464 2.2249-1.0966.1321-2.0927-.6498-2.2249-1.7464l-1.0765-8.9353-5.7847-3.3398L42 46v6l7.2001 5.4c.8837.6627 1.0628 1.9163.4 2.8-.6627.8837-1.9163 1.0627-2.8.4L42 57v7l6 6-8 10-8-10 6-6v-7l-4.7999 3.6c-.8836.6627-2.1372.4837-2.8-.4-.6627-.8837-.4836-2.1373.4-2.8L38 52v-6l-1.6077-1.6077-5.7845 3.3397-1.0766 8.9355c-.132 1.0966-1.1282 1.8785-2.2248 1.7464-1.0967-.1321-1.8786-1.1282-1.7464-2.2249l.7177-5.957-6.0623 3.5-2.1961 8.1962L5.359 59.9999l4.6603-11.9282 8.1961 2.1962 6.0621-3.5-5.5175-2.3568c-1.0158-.434-1.4875-1.6091-1.0536-2.6249.4339-1.0158 1.609-1.4875 2.6248-1.0536l8.2764 3.5353 4.8565-2.8038L32 40l1.464-1.464-4.8563-2.8039-8.2765 3.5354c-1.0158.4339-2.191-.0378-2.6249-1.0536-.4339-1.0158.0378-2.191 1.0536-2.6249l5.5177-2.3569-6.0622-3.5-8.1961 2.1962L5.359 20l12.6603-1.9283 2.1961 8.1962 6.0622 3.5-.7177-5.957c-.1321-1.0966.6498-2.0927 1.7464-2.2248 1.0967-.1321 2.0928.6498 2.2249 1.7464l1.0765 8.9354 5.7846 3.3397L38 34v-6l-7.2-5.4c-.8837-.6627-1.0627-1.9163-.4-2.8.6627-.8837 1.9163-1.0627 2.8-.4L38 23v-7l-6-6 8-10 8 10-6 6v7l4.8-3.6c.8837-.6627 2.1373-.4837 2.8.4.6627.8837.4837 2.1373-.4 2.8L42 28v6l1.6077 1.6077 5.7846-3.3398 1.0766-8.9354c.132-1.0966 1.1282-1.8785 2.2248-1.7464 1.0967.1321 1.8786 1.1282 1.7465 2.2249l-.7177 5.9569 6.0621-3.5 2.1962-8.1962L74.641 20l-4.6602 11.9283-8.1962-2.1962-6.0621 3.5 5.5177 2.357c1.0157.4338 1.4874 1.609 1.0535 2.6248-.4339 1.0158-1.609 1.4875-2.6248 1.0536l-8.2766-3.5354-4.8564 2.8039zM40 37.3333L37.3333 40 40 42.6667 42.6667 40 40 37.3333z"/>
    </symbol>

    <symbol id="icon__windspeed" viewBox="0 0 80 80">
      <path class="path--1" fill="currentColor" fill-rule="nonzero" d="M0 42h62c7.732 0 14 6.268 14 14s-6.268 14-14 14H44c-2.2091 0-4-1.7909-4-4 0-2.2091 1.7909-4 4-4h18c3.3137 0 6-2.6863 6-6s-2.6863-6-6-6H0v-8zm80-16v8H62c-2.2091 0-4-1.7909-4-4 0-2.2091 1.7909-4 4-4h18zM0 26h36c2.2091 0 4-1.7909 4-4 0-2.2091-1.7909-4-4-4H16c-2.2091 0-4-1.7909-4-4 0-2.2091 1.7909-4 4-4h20c6.6274 0 12 5.3726 12 12s-5.3726 12-12 12H0v-8z"/>
    </symbol>

    <symbol id="" viewBox="0 0 80 80">
    </symbol>

    <symbol id="" viewBox="0 0 80 80">
    </symbol>
  </defs>
</svg>