<svg xmlns="http://www.w3.org/2000/svg" xmlns:xlink="http://www.w3.org/1999/xlink" width="500" height="324">
  <defs>
    <path id="b" d="M356.4336 78c-3.1443 6.0937-4.9197 13.0087-4.9197 20.3383 0 24.5304 19.8858 44.4162 44.4161 44.4162 1.0023 0 1.9969-.0332 2.9826-.0986-7.3787 14.3003-22.2957 24.0778-39.4964 24.0778-24.5304 0-44.4162-19.8857-44.4162-44.4161 0-23.528 18.294-42.7834 41.4336-44.3176z"/>
    <filter id="a" width="135.8%" height="133.8%" x="-17.9%" y="-16.9%" filterUnits="objectBoundingBox">
      <feOffset in="SourceAlpha" result="shadowOffsetOuter1"/>
      <feGaussianBlur in="shadowOffsetOuter1" result="shadowBlurOuter1" stdDeviation="5"/>
      <feColorMatrix in="shadowBlurOuter1" values="0 0 0 0 0.990885417 0 0 0 0 0.970325988 0 0 0 0 0.894256104 0 0 0 0.503481658 0"/>
    </filter>
  </defs>
  <g fill="none" fill-rule="evenodd">
    <path fill="#FFF" d="M16.5 45c-3.0376 0-5.5-2.4624-5.5-5.5s2.4624-5.5 5.5-5.5 5.5 2.4624 5.5 5.5-2.4624 5.5-5.5 5.5zm50 250c-3.0376 0-5.5-2.4624-5.5-5.5s2.4624-5.5 5.5-5.5 5.5 2.4624 5.5 5.5-2.4624 5.5-5.5 5.5zm80-111c-3.0376 0-5.5-2.4624-5.5-5.5s2.4624-5.5 5.5-5.5 5.5 2.4624 5.5 5.5-2.4624 5.5-5.5 5.5zm179-172c-3.0376 0-5.5-2.4624-5.5-5.5s2.4624-5.5 5.5-5.5 5.5 2.4624 5.5 5.5-2.4624 5.5-5.5 5.5zM95 168c-1.6569 0-3-1.3431-3-3s1.3431-3 3-3 3 1.3431 3 3-1.3431 3-3 3zm-70 70c-1.6569 0-3-1.3431-3-3s1.3431-3 3-3 3 1.3431 3 3-1.3431 3-3 3zm110 40c-1.6569 0-3-1.3431-3-3s1.3431-3 3-3 3 1.3431 3 3-1.3431 3-3 3zm80-30c-1.6569 0-3-1.3431-3-3s1.3431-3 3-3 3 1.3431 3 3-1.3431 3-3 3zm50-190c-1.6569 0-3-1.3431-3-3s1.3431-3 3-3 3 1.3431 3 3-1.3431 3-3 3zM215 8c-1.6569 0-3-1.3431-3-3s1.3431-3 3-3 3 1.3431 3 3-1.3431 3-3 3zM65 58c-1.6569 0-3-1.3431-3-3s1.3431-3 3-3 3 1.3431 3 3-1.3431 3-3 3zm-40 60c-1.6569 0-3-1.3431-3-3s1.3431-3 3-3 3 1.3431 3 3-1.3431 3-3 3zm260 30c-1.6569 0-3-1.3431-3-3s1.3431-3 3-3 3 1.3431 3 3-1.3431 3-3 3zm30 150c-1.6569 0-3-1.3431-3-3s1.3431-3 3-3 3 1.3431 3 3-1.3431 3-3 3z" opacity=".5"/>
    <circle cx="358" cy="122" r="100" fill="#FFF5D0" opacity=".06"/>
    <circle cx="357.5" cy="122.5" r="78.5" fill="#FFF5D0" opacity=".04"/>
    <use fill="#000" filter="url(#a)" xlink:href="#b"/>
    <use fill="#FFF5D0" xlink:href="#b"/>
  </g>
</svg>
