<svg xmlns="http://www.w3.org/2000/svg" xmlns:xlink="http://www.w3.org/1999/xlink" width="500" height="324">
  <defs>
    <circle id="b" cx="402" cy="112" r="74"/>
    <filter id="a" width="160.8%" height="160.8%" x="-30.4%" y="-30.4%" filterUnits="objectBoundingBox">
      <feMorphology in="SourceAlpha" operator="dilate" radius="5" result="shadowSpreadOuter1"/>
      <feOffset in="shadowSpreadOuter1" result="shadowOffsetOuter1"/>
      <feGaussianBlur in="shadowOffsetOuter1" result="shadowBlurOuter1" stdDeviation="10"/>
      <feColorMatrix in="shadowBlurOuter1" values="0 0 0 0 1 0 0 0 0 1 0 0 0 0 1 0 0 0 0.5 0"/>
    </filter>
  </defs>
  <g fill="none" fill-rule="evenodd">
    <path fill="#FFF" fill-opacity=".2" d="M284.9527 0h5.6022C261.7994 28.614 244 68.2284 244 112c0 87.261 70.739 158 158 158 37.0204 0 71.067-12.7321 98-34.0564v5.0635C472.7889 261.7099 438.8297 274 402 274c-89.4701 0-162-72.5299-162-162 0-43.4513 17.1067-82.9071 44.9527-112z"/>
    <path fill="#FFF" fill-opacity=".2" d="M302.218 0H500v225.5638C473.7132 248.2683 439.4602 262 402 262c-82.8427 0-150-67.1573-150-150 0-44.53 19.404-84.528 50.218-112z"/>
    <path fill="#FFF" fill-opacity=".3" d="M348.7161 0H455.284C472.8703 8.3817 488.1719 20.7835 500 36.0169V187.983C477.3148 217.1992 441.853 236 402 236c-68.4833 0-124-55.5167-124-124 0-49.4098 28.8988-92.0699 70.7161-112z"/>
    <use fill="#000" filter="url(#a)" xlink:href="#b"/>
    <use fill="#FFF" xlink:href="#b"/>
  </g>
</svg>